<svg width="100" height="100" viewBox="0 0 100 100" fill="none" xmlns="http://www.w3.org/2000/svg" style="width: 200px; height: 200px;"><style>
     .line-fidget-spinner1 {animation:line-fidget-spinner1 1s linear infinite; transform-origin: 50px 56.5px;}
     @keyframes line-fidget-spinner1 {
         100%{transform: rotate(360deg);}
     }
     @media (prefers-reduced-motion: reduce) {
         .line-fidget-spinner1 {
             animation: none;
         }
     }
    </style><g class="line-fidget-spinner1" style="animation-duration: 1s;"><path class="fill1" d="M65 31C65 37.151 61.2977 42.4372 56 44.7519C54.1626 45.5547 52.1333 46 50 46C47.9579 46 46.0111 45.5919 44.2366 44.8528C38.8129 42.5937 35 37.2421 35 31C35 22.7157 41.7157 16 50 16C58.2843 16 65 22.7157 65 31Z" fill="#fff" stroke-width="2px"></path><path class="fill2" d="M56 44.7519C54.1626 45.5547 52.1333 46 50 46C47.9579 46 46.0111 45.5919 44.2366 44.8528C44.2366 44.8528 44 48.5 41.3683 51.9264C38.7366 55.3528 36.5 57 36.5 57L43 67.5C43 67.5 45.5 66.5 50 66.5C54.5 66.5 57 67.5 57 67.5L64 57C64 57 61 55.7519 58.5 51.8759C56 48 56 44.7519 56 44.7519Z" fill="#fff" stroke-width="2px"></path><path class="stroke1" d="M56 44.7519C61.2977 42.4372 65 37.151 65 31C65 22.7157 58.2843 16 50 16C41.7157 16 35 22.7157 35 31C35 37.2421 38.8129 42.5937 44.2366 44.8528M56 44.7519C54.1626 45.5547 52.1333 46 50 46C47.9579 46 46.0111 45.5919 44.2366 44.8528M56 44.7519C56 44.7519 56 48 58.5 51.8759C61 55.7519 64 57 64 57L57 67.5C57 67.5 54.5 66.5 50 66.5C45.5 66.5 43 67.5 43 67.5L36.5 57C36.5 57 38.7366 55.3528 41.3683 51.9264C44 48.5 44.2366 44.8528 44.2366 44.8528" stroke="#000" stroke-width="2px"></path><circle class="stroke1 fill1" cx="50" cy="31" r="10" fill="#fff" stroke="#000" stroke-width="2px"></circle><circle class="stroke1 fill1" cx="50" cy="31" r="3" fill="#fff" stroke="#000" stroke-width="2px"></circle><circle class="stroke1 fill1" cx="72" cy="69" r="15" fill="#fff" stroke="#000" stroke-width="2px"></circle><circle class="stroke1 fill1" cx="72" cy="69" r="10" fill="#fff" stroke="#000" stroke-width="2px"></circle><circle class="stroke1 fill1" cx="72" cy="69" r="3" fill="#fff" stroke="#000" stroke-width="2px"></circle><circle class="stroke1 fill1" cx="28" cy="69" r="15" fill="#fff" stroke="#000" stroke-width="2px"></circle><circle class="stroke1 fill1" cx="28" cy="69" r="10" fill="#fff" stroke="#000" stroke-width="2px"></circle><circle class="stroke1 fill1" cx="50" cy="56.5" r="6" fill="#fff" stroke="#000" stroke-width="2px"></circle><circle class="stroke1 fill1" cx="28" cy="69" r="3" fill="#fff" stroke="#000" stroke-width="2px"></circle></g></svg>