<svg width="221" height="167" viewBox="0 0 221 167" fill="none" xmlns="http://www.w3.org/2000/svg">
<path d="M35.0625 2C25.9453 42.8972 18.2772 84.0796 9.86382 125.123C7.12282 138.495 4.02243 151.763 2 165.246" stroke="black" stroke-width="3" stroke-linecap="round"/>
<path d="M31.9629 7.16602C33.9298 16.6727 40.1319 25.8252 44.4761 34.3163C52.0571 49.1337 59.0925 64.1874 67.3788 78.6292C72.2102 87.0497 77.3905 95.9809 80.5234 105.206C86.7225 123.458 92.595 142.737 89.8223 162.146" stroke="black" stroke-width="3" stroke-linecap="round"/>
<path d="M18.5312 101.187C42.7401 105.767 67.7699 109.453 92.4627 109.453C96.0917 109.453 97.7427 105.443 99.4081 102.737C104.767 94.0294 109.162 85.8957 113.816 76.6198C121.272 61.7568 130.913 44.4894 134.25 27.9445C138.353 7.59861 105.095 17.7135 97.3991 21.7453C60.7463 40.9473 59.8541 89.4352 79.7772 121.105C84.4557 128.542 91.1669 136.879 100.9 137.636C109.959 138.341 113.351 131.903 114.562 123.803C116.729 109.299 112.189 94.6854 107.616 81.2692C105.02 73.6516 101.965 66.1717 98.4323 58.9406C95.7701 53.4911 88.0411 39.9005 86.0339 45.6237C83.6866 52.3165 89.9679 76.6528 90.7407 79.4898C93.9611 91.3129 101.519 112.703 106.698 124.377C108.649 128.775 113.506 139.697 115.882 135.512C121.813 125.066 117.131 102.217 115.48 91.7735C115.328 90.8126 111.975 70.2449 108.65 66.4026C104.922 62.0948 106.885 77.7812 107.444 83.4504C108.481 93.9599 110.758 111.042 114.906 121.22C115.988 123.874 117.289 128.432 120.13 128.05C123.22 127.635 123.849 122.894 124.722 119.9C126.448 113.974 127.157 107.782 127.821 101.646C129.378 87.2596 128.977 77.0774 129.084 62.9586C129.15 54.2623 129.026 56.0452 130.576 65.2546C132.861 78.8214 135.085 94.361 138.612 107.616C141.179 117.259 147.34 133.516 149.978 113.528C150.796 107.328 150.959 97.9019 150.092 91.3717C149.996 90.6417 149.446 88.6784 149.174 89.3627C146.995 94.8488 148.155 101.139 148.141 107.042C148.131 111.444 148.357 125.532 148.944 130.691C149.073 131.822 148.788 134.076 149.92 133.963C151.161 133.838 150.923 131.667 151.24 130.461C151.882 128.023 152.243 125.518 152.79 123.057C153.534 119.71 154.992 111.402 155.947 118.809C156.299 121.538 156.441 120.622 155.603 117.948C152.383 107.671 171.083 109.3 175.693 109.453C183.339 109.706 195.427 111.319 203.13 112.208C206.209 112.563 209.286 112.95 212.372 113.241C214.505 113.443 220.124 114.869 218.8 113.184C215.493 108.974 204.235 107.768 199.399 105.492C193.951 102.928 195.27 101.485 196.701 109.223C197.019 110.94 200.799 128.2 197.275 116.111C195.482 109.959 193.342 102.085 191.421 96.0211C190.68 93.6849 189.944 91.3411 189.01 89.0757C187.862 86.2937 187.39 85.9645 187.173 88.7887C186.726 94.5954 187.655 100.604 187.919 106.411C188.158 111.672 187.76 100.012 186.255 102.565C181.563 110.519 180.534 121.363 177.3 130.002C175.246 135.487 173.512 138.033 173.512 131.38C173.512 117.529 171.445 102.996 171.445 88.7887" stroke="black" stroke-width="3" stroke-linecap="round"/>
</svg>
