<svg width="100" height="100" viewBox="0 0 100 100" fill="none" xmlns="http://www.w3.org/2000/svg" style="width: 200px; height: 200px; transform: rotateY(0deg);"><style>
     .line-wind1-a {animation:line-wind1-a 4s infinite; stroke-dasharray: 140; stroke-dashoffset: 140;}
     .line-wind1-b {animation:line-wind1-b 4s infinite; stroke-dasharray: 140; stroke-dashoffset: 140;}
     .line-wind1-c {animation:line-wind1-c 4s infinite; stroke-dasharray: 140; stroke-dashoffset: 140;}
     @keyframes line-wind1-a {
         0%{stroke-dashoffset: 140;}
         10%{stroke-dashoffset: 140;}
         80%{stroke-dashoffset: 0; opacity: 1;}
         90% {opacity: 1;}
         100%{stroke-dashoffset: 0; opacity: 0;}
     }
     @keyframes line-wind1-b {
         0%{stroke-dashoffset: 140;}
         15%{stroke-dashoffset: 140;}
         80%{stroke-dashoffset: 0; opacity: 1;}
         90% {opacity: 1;}
         100%{stroke-dashoffset: 0; opacity: 0;}
     }
     @keyframes line-wind1-c {
         0%{stroke-dashoffset: 140;}
         20%{stroke-dashoffset: 140;}
         80%{stroke-dashoffset: 0; opacity: 1;}
         90% {opacity: 1;}
         100%{stroke-dashoffset: 0; opacity: 0}
     }
     @media (prefers-reduced-motion: reduce) {
         .line-wind1-a, .line-wind1-b, .line-wind1-c {
             animation: none;
         }
     }
    </style><path class="line-wind1-a stroke1" d="M21 40.5522H45.4552C45.4552 40.5522 55.5746 40.5522 55.5746 31.2761C55.5746 22 47.4552 22 47.4552 22C38.7246 22 40.3955 32 40.3955 32" stroke="#000" stroke-width="2px" stroke-linecap="round" style="animation-duration: 4s;"></path><path class="line-wind1-b stroke2" d="M25 49.5522H69.4552C69.4552 49.5522 79.5746 49.5522 79.5746 40.2761C79.5746 31 71.4552 31 71.4552 31C62.7246 31 64.3955 41 64.3955 41" stroke="#000" stroke-width="2px" stroke-linecap="round" style="animation-duration: 4s;"></path><path class="line-wind1-c stroke1" d="M32 59H56.4552C56.4552 59 66.5746 59 66.5746 68.2761C66.5746 77.5522 58.4552 77.5522 58.4552 77.5522C49.7246 77.5522 51.3955 67.5522 51.3955 67.5522" stroke="#000" stroke-width="2px" stroke-linecap="round" style="animation-duration: 4s;"></path></svg>